<?xml version="1.0" encoding="UTF-8" standalone="no"?>
<!-- Created with Inkscape (http://www.inkscape.org/) -->

<svg
   xmlns:dc="http://purl.org/dc/elements/1.1/"
   xmlns:cc="http://creativecommons.org/ns#"
   xmlns:rdf="http://www.w3.org/1999/02/22-rdf-syntax-ns#"
   xmlns:svg="http://www.w3.org/2000/svg"
   xmlns="http://www.w3.org/2000/svg"
   xmlns:sodipodi="http://sodipodi.sourceforge.net/DTD/sodipodi-0.dtd"
   xmlns:inkscape="http://www.inkscape.org/namespaces/inkscape"
   width="66.145836mm"
   height="66.145966mm"
   viewBox="0 0 66.145836 66.145966"
   version="1.1"
   id="svg8"
   inkscape:version="0.92.4 (5da689c313, 2019-01-14)"
   sodipodi:docname="shiai.svg">
  <defs
     id="defs2" />
  <sodipodi:namedview
     id="base"
     pagecolor="#ffffff"
     bordercolor="#666666"
     borderopacity="1.0"
     inkscape:pageopacity="0.0"
     inkscape:pageshadow="2"
     inkscape:zoom="1.4"
     inkscape:cx="91.213203"
     inkscape:cy="137.92124"
     inkscape:document-units="mm"
     inkscape:current-layer="layer1"
     showgrid="false"
     fit-margin-top="0"
     fit-margin-left="0"
     fit-margin-right="0"
     fit-margin-bottom="0"
     inkscape:window-width="1920"
     inkscape:window-height="1051"
     inkscape:window-x="-9"
     inkscape:window-y="-9"
     inkscape:window-maximized="1" />
  <metadata
     id="metadata5">
    <rdf:RDF>
      <cc:Work
         rdf:about="">
        <dc:format>image/svg+xml</dc:format>
        <dc:type
           rdf:resource="http://purl.org/dc/dcmitype/StillImage" />
        <dc:title></dc:title>
      </cc:Work>
    </rdf:RDF>
  </metadata>
  <g
     inkscape:label="Layer 1"
     inkscape:groupmode="layer"
     id="layer1"
     transform="translate(-3.9687501,-1.8005299)">
    <g
       style="fill:none"
       id="g3730"
       transform="matrix(0.26458333,0,0,0.26458333,-10.583333,-12.751421)">
      <path
         id="path3713"
         style="fill:none;stroke:#cccccc;stroke-width:10;stroke-linecap:round;stroke-linejoin:round"
         d=""
         inkscape:connector-curvature="0" />
      <path
         id="path3715"
         style="fill:#ff4136;stroke:#ff4136;stroke-width:10;stroke-linecap:round;stroke-linejoin:round"
         d="M 180,60 A 120,120 0 0 0 60,180 120,120 0 0 0 180,300 120,120 0 0 0 300,180 120,120 0 0 0 180,60"
         inkscape:connector-curvature="0" />
      <path
         id="path3717"
         style="fill:#f4f4f4;stroke:#f4f4f4;stroke-width:10;stroke-linecap:round;stroke-linejoin:round"
         d="M 120,150 V 150 165 A 60,30 0 0 0 180,195 60,30 0 0 0 240,165 V 165 150 A 60,30 0 0 1 180,180 60,30 0 0 1 120,150 M 120,165 V 165 150 A 60,30 0 0 1 180,120 60,30 0 0 1 240,150 V 150 165 A 60,30 0 0 0 180,135 60,30 0 0 0 120,165 M 165,195 A 15,30 0 0 0 150,225 15,30 0 0 0 165,255 V 255 H 150 A 15,30 0 0 1 135,225 15,30 0 0 1 150,195 V 195 H 165 M 195,195 V 195 H 210 A 15,30 0 0 1 225,225 15,30 0 0 1 210,255 V 255 H 195 A 15,30 0 0 0 210,225 15,30 0 0 0 195,195 M 165,180 A 15,15 0 0 1 180,165 15,15 0 0 1 195,180"
         inkscape:connector-curvature="0" />
    </g>
  </g>
</svg>
